<?xml version="1.0" standalone="no"?><!DOCTYPE svg PUBLIC "-//W3C//DTD SVG 1.1//EN" "http://www.w3.org/Graphics/SVG/1.1/DTD/svg11.dtd"><svg class="icon" width="200px" height="200.00px" viewBox="0 0 1024 1024" version="1.1" xmlns="http://www.w3.org/2000/svg"><path fill="#333333" d="M896 0l128 0 0 128-128 0L896 0 896 0zM0 0l704 0 0 128L0 128 0 0 0 0zM896 448l128 0 0 128-128 0L896 448 896 448zM0 448l704 0 0 128L0 576 0 448 0 448zM896 896l128 0 0 128-128 0L896 896 896 896zM0 896l704 0 0 128L0 1024 0 896 0 896z" /></svg>